<?xml version="1.0" encoding="UTF-8"?>
<svg id="Capa_2" data-name="Capa 2" xmlns="http://www.w3.org/2000/svg" viewBox="0 0 669 724">
  <defs>
    <style>
      .cls-1 {
        fill: #2249aa;
      }

      .cls-1, .cls-2, .cls-3 {
        stroke-width: 0px;
      }

      .cls-2 {
        fill: #1a3e84;
      }

      .cls-3 {
        fill: #245eb2;
      }
    </style>
  </defs>
  <g id="Capa_1-2" data-name="Capa 1">
    <g>
      <path class="cls-2" d="M234.9,469.56l35.16-58.68c21.98-36.68,70.65-49.25,108.72-28.07l248.31,138.13c38.07,21.18,51.11,68.08,29.13,104.76l-35.16,58.68c-21.98,36.68-70.65,49.25-108.72,28.07l-248.31-138.13c-38.07-21.18-51.11-68.08-29.13-104.76Z"/>
      <path class="cls-3" d="M294.55,387.55l-47.44-50.01c-29.66-31.26-27.4-79.77,5.05-108.34L488.27,21.25c32.45-28.57,82.79-26.4,112.44,4.87l47.44,50.01c29.66,31.26,27.4,79.77-5.05,108.34l-236.11,207.94c-32.45,28.57-82.79,26.4-112.44-4.87Z"/>
      <path class="cls-1" d="M221.38,0H79.59C35.63,0,0,34.33,0,76.69v570.63c0,42.35,35.63,76.69,79.59,76.69h141.79c43.96,0,79.59-34.33,79.59-76.69V76.69C300.97,34.33,265.33,0,221.38,0ZM214.5,414.19c-.71,14.79-5.63,28.23-14.56,40.2-4.07,5.45-8.99,10.19-14.63,14.3-6.31,4.6-13.39,7.53-20.67,10.14-4.67,1.68-7.04,4.79-7.12,9.99-.08,5.45-.02,10.89-.03,16.34,0,1.52,0,3.04-.04,4.55-.17,9.42-3.18,10.94-11.17,10.81-2.41-.04-4.82,0-7.23,0-3.24,0-6.49.1-9.73-.02-5.09-.19-7.35-2.17-8.19-7.01-.24-1.4-.29-2.84-.32-4.26-.15-6.42-.13-12.86-.43-19.27-.23-4.83-1.33-5.79-6.12-6.8-6.56-1.39-13.26-2.38-19.6-4.41-7.1-2.26-14.07-5.1-20.71-8.41-6.76-3.37-8.01-7.05-6.21-14.16,2.21-8.73,4.49-17.45,6.79-26.16.38-1.46.84-2.93,1.51-4.28,1.04-2.08,2.85-3.2,5.23-2.33,2.28.84,4.43,2.04,6.62,3.11,2.85,1.39,5.61,3,8.55,4.18,7.93,3.17,16.11,5.43,24.6,6.96,5.79,1.04,11.52,2.07,17.24.9,7.91-1.61,15.82-3.63,20.9-10.56,5.52-7.53,6.26-15.6,2.53-24.03-2.38-5.38-6.39-9.52-11.54-12.5-5-2.9-10.13-5.6-15.34-8.14-5.96-2.91-12.21-5.27-18.06-8.36-6.71-3.55-13.51-7.16-19.59-11.6-19.03-13.91-29.13-32.21-28.29-55.67.47-13.23,3.31-25.8,10.42-37.22,3.46-5.55,7.89-10.38,13.14-14.57,6.56-5.24,13.67-9.41,21.66-12.25,1.95-.69,3.76-1.77,5.6-2.74,2.47-1.3,3.26-3.59,3.34-6.06.24-7.58.29-15.18.54-22.76.21-6.22,1.95-8,8.38-8.11,6.57-.11,13.16-.01,19.72.31,4.67.23,6.19,1.53,6.93,7.03.39,2.91.39,5.87.48,8.82.1,3.48.04,6.97.16,10.45.19,5.51,1.35,6.78,6.94,7.99,5.02,1.09,10.18,1.81,15.02,3.43,6.72,2.25,13.35,4.89,19.72,7.94,3.54,1.69,5.1,5.34,4.14,9.12-2.7,10.63-5.65,21.2-8.65,31.75-.78,2.73-3.02,3.88-5.88,3-2.59-.79-5-2.15-7.48-3.27-.41-.19-.79-.45-1.2-.63-8.47-3.65-17.21-6.34-26.57-6.82-1.82-.09-3.65-.96-5.42-.8-5.58.5-11.32.67-16.64,2.15-12.37,3.43-18.17,17.82-10.79,28.94,3.42,5.15,8.3,8.71,13.66,11.62,5.89,3.2,12.07,5.9,18.07,8.9,7.62,3.81,15.32,7.5,22.76,11.62,9.06,5.02,16.87,11.59,22.9,19.85,10.67,14.62,15.5,30.94,14.64,48.81Z"/>
    </g>
  </g>
</svg>