<?xml version="1.0" encoding="UTF-8"?>
<svg id="Capa_2" data-name="Capa 2" xmlns="http://www.w3.org/2000/svg" viewBox="0 0 2250 724">
  <defs>
    <style>
      .cls-1 {
        fill: #2249aa;
      }

      .cls-1, .cls-2, .cls-3, .cls-4 {
        stroke-width: 0px;
      }

      .cls-2 {
        fill: #1a3e84;
      }

      .cls-3 {
        fill: #245eb2;
      }

      .cls-4 {
        fill: #fff;
      }
    </style>
  </defs>
  <g id="Capa_1-2" data-name="Capa 1">
    <g>
      <path class="cls-2" d="M234.9,469.56l35.16-58.68c21.98-36.68,70.65-49.25,108.72-28.07l248.31,138.13c38.07,21.18,51.11,68.08,29.13,104.76l-35.16,58.68c-21.98,36.68-70.65,49.25-108.72,28.07l-248.31-138.13c-38.07-21.18-51.11-68.08-29.13-104.76Z"/>
      <path class="cls-3" d="M294.55,387.55l-47.44-50.01c-29.66-31.26-27.4-79.77,5.05-108.34L488.27,21.25c32.45-28.57,82.79-26.4,112.44,4.87l47.44,50.01c29.66,31.26,27.4,79.77-5.05,108.34l-236.11,207.94c-32.45,28.57-82.79,26.4-112.44-4.87Z"/>
      <path class="cls-1" d="M221.38,0H79.59C35.63,0,0,34.33,0,76.69v570.63c0,42.35,35.63,76.69,79.59,76.69h141.79c43.96,0,79.59-34.33,79.59-76.69V76.69C300.97,34.33,265.33,0,221.38,0ZM214.5,414.19c-.71,14.79-5.63,28.23-14.56,40.2-4.07,5.45-8.99,10.19-14.63,14.3-6.31,4.6-13.39,7.53-20.67,10.14-4.67,1.68-7.04,4.79-7.12,9.99-.08,5.45-.02,10.89-.03,16.34,0,1.52,0,3.04-.04,4.55-.17,9.42-3.18,10.94-11.17,10.81-2.41-.04-4.82,0-7.23,0-3.24,0-6.49.1-9.73-.02-5.09-.19-7.35-2.17-8.19-7.01-.24-1.4-.29-2.84-.32-4.26-.15-6.42-.13-12.86-.43-19.27-.23-4.83-1.33-5.79-6.12-6.8-6.56-1.39-13.26-2.38-19.6-4.41-7.1-2.26-14.07-5.1-20.71-8.41-6.76-3.37-8.01-7.05-6.21-14.16,2.21-8.73,4.49-17.45,6.79-26.16.38-1.46.84-2.93,1.51-4.28,1.04-2.08,2.85-3.2,5.23-2.33,2.28.84,4.43,2.04,6.62,3.11,2.85,1.39,5.61,3,8.55,4.18,7.93,3.17,16.11,5.43,24.6,6.96,5.79,1.04,11.52,2.07,17.24.9,7.91-1.61,15.82-3.63,20.9-10.56,5.52-7.53,6.26-15.6,2.53-24.03-2.38-5.38-6.39-9.52-11.54-12.5-5-2.9-10.13-5.6-15.34-8.14-5.96-2.91-12.21-5.27-18.06-8.36-6.71-3.55-13.51-7.16-19.59-11.6-19.03-13.91-29.13-32.21-28.29-55.67.47-13.23,3.31-25.8,10.42-37.22,3.46-5.55,7.89-10.38,13.14-14.57,6.56-5.24,13.67-9.41,21.66-12.25,1.95-.69,3.76-1.77,5.6-2.74,2.47-1.3,3.26-3.59,3.34-6.06.24-7.58.29-15.18.54-22.76.21-6.22,1.95-8,8.38-8.11,6.57-.11,13.16-.01,19.72.31,4.67.23,6.19,1.53,6.93,7.03.39,2.91.39,5.87.48,8.82.1,3.48.04,6.97.16,10.45.19,5.51,1.35,6.78,6.94,7.99,5.02,1.09,10.18,1.81,15.02,3.43,6.72,2.25,13.35,4.89,19.72,7.94,3.54,1.69,5.1,5.34,4.14,9.12-2.7,10.63-5.65,21.2-8.65,31.75-.78,2.73-3.02,3.88-5.88,3-2.59-.79-5-2.15-7.48-3.27-.41-.19-.79-.45-1.2-.63-8.47-3.65-17.21-6.34-26.57-6.82-1.82-.09-3.65-.96-5.42-.8-5.58.5-11.32.67-16.64,2.15-12.37,3.43-18.17,17.82-10.79,28.94,3.42,5.15,8.3,8.71,13.66,11.62,5.89,3.2,12.07,5.9,18.07,8.9,7.62,3.81,15.32,7.5,22.76,11.62,9.06,5.02,16.87,11.59,22.9,19.85,10.67,14.62,15.5,30.94,14.64,48.81Z"/>
    </g>
    <g>
      <path class="cls-4" d="M786.87,681.59c0,6.07-1.09,10.73-3.26,13.97-2.17,3.25-5.89,4.86-11.14,4.86h-25.81c-5.25,0-9.01-1.73-11.27-5.18-2.27-3.45-3.4-8.21-3.4-14.28v-175.13c0-6.07,1.09-10.72,3.26-13.97,2.17-3.24,5.88-4.86,11.14-4.86h25.81c5.25,0,9.01,1.73,11.27,5.18,2.26,3.45,3.4,8.21,3.4,14.28v49.28c0,4.39.9,7.33,2.72,8.79,1.81,1.47,4.35,2.2,7.61,2.2h12.22c2.72,0,5.16-.68,7.33-2.04,2.17-1.36,4.52-3.19,7.06-5.49l66.56-61.83c3.98-3.56,7.38-6.17,10.19-7.85,2.81-1.67,6.29-2.51,10.46-2.51h24.45c4.35,0,7.92,1.26,10.73,3.77,2.81,2.51,4.21,5.86,4.21,10.04,0,5.65-2.17,10.36-6.52,14.12l-74.16,68.11c-2.72,2.51-4.07,5.02-4.07,7.53,0,1.26.27,2.46.81,3.61.54,1.15,1.63,2.46,3.26,3.92l82.04,73.76c4.35,3.77,6.52,8.58,6.52,14.44,0,4.39-1.4,7.85-4.21,10.36-2.81,2.51-6.38,3.77-10.73,3.77h-29.07c-4.17,0-7.65-.83-10.46-2.51-2.81-1.67-6.21-4.29-10.19-7.85l-70.36-64.03c-2.72-2.51-5.21-4.55-7.47-6.12-2.27-1.57-5.03-2.35-8.29-2.35h-10.32c-3.26,0-5.8.74-7.61,2.2-1.81,1.47-2.72,4.39-2.72,8.79v53.04Z"/>
      <path class="cls-4" d="M1153.88,505.83c0-5.86,1.09-10.46,3.26-13.81,2.17-3.34,5.88-5.02,11.14-5.02h26.35c5.25,0,8.96,1.68,11.14,5.02,2.17,3.35,3.26,7.95,3.26,13.81v122.41c0,16.32-1.95,29.35-5.84,39.08-3.9,9.73-10.28,17.16-19.15,22.28-8.88,5.13-20.42,8.47-34.64,10.04-14.22,1.57-31.65,2.35-52.29,2.35h-5.43c-20.65,0-38.08-.74-52.29-2.2-14.22-1.46-25.72-4.71-34.5-9.73-8.79-5.02-15.12-12.4-19.02-22.13-3.9-9.73-5.84-22.96-5.84-39.7v-122.41c0-5.86,1.09-10.46,3.26-13.81,2.17-3.34,5.88-5.02,11.14-5.02h26.35c5.25,0,8.96,1.68,11.14,5.02,2.17,3.35,3.26,7.95,3.26,13.81v102.95c0,10.04.77,18,2.31,23.85,1.54,5.86,4.35,10.2,8.42,13.03,4.07,2.82,9.73,4.61,16.98,5.34,7.24.74,16.57,1.1,27.98,1.1h8.42c11.41,0,20.65-.36,27.71-1.1,7.06-.73,12.59-2.56,16.57-5.49,3.98-2.93,6.7-7.27,8.15-13.03,1.45-5.75,2.17-13.65,2.17-23.7v-102.95Z"/>
      <path class="cls-4" d="M1414.12,669.67c-1.45-3.14-2.85-5.18-4.21-6.12s-3.76-1.41-7.2-1.41h-100.51c-3.44,0-5.84.47-7.2,1.41s-2.76,2.98-4.21,6.12l-6.52,14.44c-1.45,3.14-2.76,5.76-3.94,7.85-1.18,2.09-2.44,3.77-3.8,5.02-1.36,1.26-2.95,2.15-4.75,2.67-1.81.52-4.07.78-6.79.78h-23.91c-4.71,0-8.38-1.26-11-3.77-2.63-2.51-3.94-5.86-3.94-10.04s.99-8.26,2.99-12.24l83.4-174.19c2.35-4.81,4.8-8.21,7.33-10.2,2.53-1.99,6.15-2.98,10.87-2.98h43.46c4.71,0,8.29,1,10.73,2.98,2.44,1.99,4.93,5.39,7.47,10.2l84.48,174.19c1.99,4.39,2.99,8.47,2.99,12.24,0,4.61-1.45,8.06-4.35,10.36-2.9,2.3-6.43,3.45-10.59,3.45h-25.81c-2.54,0-4.66-.26-6.38-.78-1.72-.52-3.26-1.41-4.62-2.67-1.36-1.26-2.63-2.93-3.8-5.02-1.18-2.09-2.4-4.71-3.67-7.85l-6.52-14.44ZM1357.35,537.85c-1.45-3.34-3.08-5.02-4.89-5.02s-3.44,1.68-4.89,5.02l-29.61,68.11c-1.09,2.51-1.63,4.6-1.63,6.28,0,3.56,2.17,5.34,6.52,5.34h58.95c4.35,0,6.52-1.78,6.52-5.34,0-1.67-.54-3.77-1.63-6.28l-29.34-68.11Z"/>
      <path class="cls-4" d="M1543.43,700.42c-4.89,0-9.51-.63-13.85-1.88-4.35-1.26-8.2-3.3-11.55-6.12-3.35-2.82-5.98-6.48-7.88-10.99-1.9-4.5-2.85-9.89-2.85-16.16v-143.12c0-6.48.95-11.93,2.85-16.32s4.52-8,7.88-10.83c3.35-2.82,7.2-4.86,11.55-6.12,4.35-1.26,8.96-1.88,13.85-1.88h91.55c17.02,0,31.78.42,44.28,1.26,12.5.84,23.13,2.51,31.92,5.02,8.78,2.51,15.89,6.12,21.32,10.83s9.64,10.88,12.63,18.52c2.99,7.64,5.03,17.06,6.11,28.25,1.09,11.2,1.63,24.43,1.63,39.7v6.28c0,14.86-.5,27.73-1.49,38.6-1,10.88-2.95,20.14-5.84,27.78-2.9,7.64-7.02,13.86-12.36,18.67-5.34,4.82-12.41,8.58-21.19,11.3-8.79,2.72-19.47,4.6-32.06,5.65-12.59,1.05-27.57,1.57-44.96,1.57h-91.55ZM1630.36,650.83c15.93,0,28.48-.47,37.62-1.41,9.14-.94,15.93-3.3,20.37-7.06,4.44-3.77,7.2-9.36,8.29-16.79,1.09-7.42,1.63-17.63,1.63-30.6v-3.77c0-12.76-.59-22.86-1.77-30.29-1.18-7.42-4.07-13.03-8.69-16.79-4.62-3.77-11.41-6.17-20.37-7.22-8.96-1.04-21.33-1.57-37.08-1.57h-57.32c-3.63,0-6.34.78-8.15,2.35-1.81,1.57-2.72,4.34-2.72,8.32v93.22c0,7.74,3.62,11.61,10.87,11.61h57.32Z"/>
      <path class="cls-4" d="M1840.89,681.59c0,5.86-1.09,10.47-3.26,13.81-2.17,3.35-5.89,5.02-11.14,5.02h-25.54c-5.26,0-8.96-1.67-11.14-5.02-2.17-3.34-3.26-7.95-3.26-13.81v-159.44c0-6.48.95-11.93,2.85-16.32,1.9-4.39,4.52-8,7.88-10.83,3.35-2.82,7.2-4.86,11.55-6.12,4.35-1.26,8.96-1.88,13.85-1.88h105.95c13.58,0,25.31.84,35.18,2.51,9.87,1.68,17.97,4.76,24.31,9.26,6.34,4.5,11.04,10.78,14.13,18.83,3.08,8.06,4.62,18.47,4.62,31.23v11.3c0,12.55-2.4,22.13-7.2,28.72-4.8,6.59-10.82,11.88-18.06,15.85-1.45.84-2.58,1.62-3.4,2.35-.82.74-1.22,1.83-1.22,3.3,0,1.68.45,2.82,1.36,3.45.9.63,1.81,1.15,2.72,1.57,4.35,1.68,8.15,3.82,11.41,6.43,3.26,2.62,5.98,6.12,8.15,10.51,2.17,4.39,3.8,9.84,4.89,16.32,1.09,6.49,1.63,14.33,1.63,23.54v9.42c0,5.86-1.09,10.47-3.26,13.81-2.17,3.35-5.89,5.02-11.14,5.02h-25.54c-5.25,0-8.96-1.67-11.14-5.02-2.17-3.34-3.26-7.95-3.26-13.81v-3.45c0-8.79-.5-15.64-1.49-20.56-1-4.91-3.58-8.58-7.74-10.99-4.17-2.4-10.55-3.92-19.15-4.55-8.6-.63-20.6-.94-35.99-.94h-36.95c-3.44,0-6.07.78-7.88,2.35-1.81,1.57-2.72,4.24-2.72,8v30.13ZM1909.08,594.65c8.69,0,15.8-.31,21.32-.94,5.52-.63,9.87-1.83,13.04-3.61,3.17-1.78,5.34-4.29,6.52-7.53,1.18-3.24,1.77-7.48,1.77-12.71v-11.61c0-4.81-.45-8.79-1.36-11.93-.91-3.14-2.9-5.6-5.98-7.38-3.08-1.78-7.52-3.03-13.31-3.77-5.8-.73-13.58-1.1-23.36-1.1h-56.23c-3.44,0-6.07.78-7.88,2.35-1.81,1.57-2.72,4.24-2.72,8v39.23c0,7.33,3.53,10.99,10.59,10.99h57.59Z"/>
      <path class="cls-4" d="M2233.7,652.09c5.07,0,9.05,1.26,11.95,3.77,2.89,2.51,4.35,6.8,4.35,12.87v15.07c0,6.07-1.45,10.36-4.35,12.87-2.9,2.51-6.88,3.77-11.95,3.77h-154.57c-4.89,0-9.51-.63-13.85-1.88-4.35-1.26-8.2-3.3-11.55-6.12-3.35-2.82-5.98-6.48-7.88-10.99-1.9-4.5-2.85-9.89-2.85-16.16v-143.12c0-6.48.95-11.93,2.85-16.32,1.9-4.39,4.52-8,7.88-10.83,3.35-2.82,7.2-4.86,11.55-6.12,4.35-1.26,8.96-1.88,13.85-1.88h151.31c5.07,0,9.05,1.26,11.95,3.77,2.89,2.51,4.35,6.8,4.35,12.87v13.81c0,5.86-1.45,10.1-4.35,12.71-2.9,2.62-6.88,3.92-11.95,3.92h-124.96c-3.44,0-6.07.78-7.88,2.35-1.81,1.57-2.72,4.24-2.72,8v15.38c0,7.33,3.53,10.99,10.59,10.99h117.63c5.25,0,9.28,1.26,12.09,3.77,2.81,2.51,4.21,6.8,4.21,12.87v11.3c0,5.86-1.41,10.1-4.21,12.71-2.81,2.62-6.84,3.92-12.09,3.92h-117.63c-3.44,0-6.07.78-7.88,2.35-1.81,1.57-2.72,4.24-2.72,8v15.38c0,7.33,3.53,10.99,10.59,10.99h128.22Z"/>
    </g>
  </g>
</svg>